<svg width="150" height="40" xmlns="http://www.w3.org/2000/svg">
 <!-- Created with Method Draw - http://github.com/duopixel/Method-Draw/ -->

 <g>
  <title>background</title>
  <rect x="-1" y="-1" width="152" height="42" id="canvas_background" fill="none"/>
  <g id="canvasGrid" display="none">
   <rect id="svg_2" width="100%" height="100%" x="0" y="0" stroke-width="0" fill="url(#gridpattern)"/>
  </g>
 </g>
 <g>
  <title>Layer 1</title>
  <g id="svg_54">
   <path fill="#7f3f00" stroke-width="0" stroke-opacity="null" fill-opacity="null" d="m9.05477,14.47188c0,0 22.91952,0 22.83247,-0.08338c0.08705,0.08338 7.195,7.44895 7.10795,7.36557c0.08705,0.08338 -22.68741,-0.19457 -22.77445,-0.41692c0.08704,0.08338 -7.16597,-6.86527 -7.16597,-6.86527z" id="svg_71" transform="rotate(-0.7189310789108276 24.02539062499946,18.07885742187523) " stroke="#000000"/>
   <line fill="none" stroke="#000" stroke-width="1.5" stroke-opacity="null" fill-opacity="null" x1="31.95" y1="14.3" x2="31.95" y2="2.55" id="svg_25" stroke-linejoin="null" stroke-linecap="null"/>
   <line fill="none" stroke-width="1.5" stroke-opacity="null" fill-opacity="null" x1="7.950001" y1="14.3" x2="32.45" y2="14.55" id="svg_16" stroke-linejoin="null" stroke-linecap="null" stroke="#000"/>
   <rect fill="#bf5f00" stroke-width="0" stroke-opacity="null" x="8.574989" y="3.323665" width="22.749983" height="10.374998" id="svg_57" transform="rotate(0.6009663939476013 19.95001220703133,8.511169433593714) " stroke="#000"/>
   <text fill="#000000" stroke="#000" stroke-width="0" x="36.750015" y="36.806277" id="svg_1" font-size="24" font-family="Euphoria, sans-serif" text-anchor="start" xml:space="preserve" font-weight="bold">MediaBox</text>
   <line fill="none" stroke="#000" stroke-width="1.5" stroke-opacity="null" fill-opacity="null" x1="39.7" y1="20.8" x2="32.2" y2="14.3" id="svg_8" stroke-linejoin="null" stroke-linecap="null"/>
   <line fill="none" stroke="#000" stroke-width="1.5" stroke-opacity="null" fill-opacity="null" x1="15.7" y1="20.8" x2="8.2" y2="14.3" id="svg_9" stroke-linejoin="null" stroke-linecap="null"/>
   <path fill="#ffffff" stroke-width="1.5" d="m29.908249,21.16271c-0.7306,-0.16147 -0.98253,-1.28951 -0.54695,-1.96534c0.57807,-1.0452 1.81462,-1.7498 2.78346,-1.0903c0.01931,-3.69269 0.00817,-7.38558 0.01112,-11.07835c2.41571,-0.58407 4.83689,-1.13553 7.25345,-1.71475c-0.00524,4.12511 -0.01047,8.25023 -0.01571,12.37534c-0.3786,1.24768 -1.60194,2.11287 -2.66715,1.72599c-0.63418,-0.23201 -0.78622,-1.23244 -0.43308,-1.84542c0.48358,-0.91438 1.38366,-1.54218 2.28852,-1.3709c0.25823,-0.03193 0.63848,0.47901 0.52934,-0.09899c-0.00897,-3.26279 0.02229,-6.52644 -0.02307,-9.78854c-0.39424,-0.17888 -1.09537,0.23268 -1.60015,0.26598c-1.68802,0.40151 -3.37965,0.78174 -5.06379,1.20672c0.05081,3.61528 0.02712,7.23277 0.01955,10.84882c0.08942,0.82544 -0.28284,1.603 -0.84887,2.03328c-0.48843,0.43422 -1.09189,0.59075 -1.68667,0.49646l0,0z" id="svg_12" transform="rotate(28.824756622314453 34.27825927734375,13.251541137695314) " stroke="#7f0000"/>
   <line fill="none" stroke="#000" stroke-width="1.5" stroke-opacity="null" fill-opacity="null" x1="7.95" y1="5.8" x2="8.45" y2="5.55" id="svg_20" stroke-linejoin="null" stroke-linecap="null"/>
   <line transform="rotate(-0.5409473776817322 20.45001220703121,2.581207275390567) " fill="none" stroke-width="1.5" stroke-opacity="null" fill-opacity="null" x1="8.200002" y1="2.456192" x2="32.7" y2="2.706192" id="svg_24" stroke-linejoin="null" stroke-linecap="null" stroke="#000"/>
   <line stroke="#ff7f00" stroke-linecap="null" stroke-linejoin="null" id="svg_19" y2="13.572587" x2="8.950125" y1="3.314975" x1="8.950125" fill-opacity="null" stroke-opacity="null" stroke-width="0.5" fill="none"/>
   <path fill="#bf5f00" stroke-width="0" stroke-opacity="null" d="m14.82497,35.44997c0,0 -6.2634,-5.81293 -6.325,-5.88269c0.0616,0.06976 0.16428,-13.99755 0.10267,-14.0673c0.06161,0.06975 6.11965,5.41765 6.11965,5.41765c0,0 0.10268,14.53234 0.10268,14.53234z" id="svg_53" stroke="#000"/>
   <line stroke-linecap="null" stroke-linejoin="null" id="svg_21" y2="21.576315" x2="15.116454" y1="15.697665" x1="8.456068" fill-opacity="null" stroke-opacity="null" stroke-width="0.5" stroke="#ff7f00" fill="none"/>
   <line fill="none" stroke-width="1.5" stroke-opacity="null" fill-opacity="null" x1="7.95" y1="30.299998" x2="7.95" y2="1.799999" id="svg_18" stroke-linejoin="null" stroke-linecap="null" stroke="#000"/>
   <line stroke="#ff7f00" stroke-linecap="null" stroke-linejoin="null" id="svg_22" y2="35.336105" x2="14.453542" y1="20.857119" x1="14.453542" fill-opacity="null" stroke-opacity="null" stroke-width="0.5" fill="none"/>
   <line fill="none" stroke="#000" stroke-width="1.5" stroke-opacity="null" fill-opacity="null" x1="15.231114" y1="36.237461" x2="7.731114" y2="29.737461" id="svg_11" stroke-linejoin="null" stroke-linecap="null"/>
   <rect fill="#bf5f00" stroke-width="0" stroke-opacity="null" x="16.19997" y="21.199975" width="22.374998" height="14.124998" id="svg_55" stroke="#000"/>
   <g id="svg_62">
    <line fill="none" stroke-width="0.5" stroke-opacity="null" fill-opacity="null" x1="11.949971" y1="22.699974" x2="11.949971" y2="26.324974" id="svg_33" stroke-linejoin="null" stroke-linecap="null" stroke="#000"/>
    <line fill="none" stroke-width="0.5" stroke-opacity="null" fill-opacity="null" x1="12.199972" y1="22.949974" x2="7.199973" y2="22.949974" id="svg_36" stroke-linejoin="null" stroke-linecap="null" stroke="#000"/>
    <line fill="none" stroke-width="0.5" stroke-opacity="null" fill-opacity="null" x1="12.199976" y1="26.074974" x2="9.199976" y2="26.074974" id="svg_37" stroke-linejoin="null" stroke-linecap="null" stroke="#000"/>
    <line fill="none" stroke-width="0.5" stroke-opacity="null" fill-opacity="null" x1="6.949972" y1="22.699974" x2="6.949972" y2="29.074974" id="svg_38" stroke-linejoin="null" stroke-linecap="null" stroke="#000"/>
    <line fill="none" stroke-width="0.5" stroke-opacity="null" fill-opacity="null" x1="9.324972" y1="26.074974" x2="9.324972" y2="31.449973" id="svg_39" stroke-linejoin="null" stroke-linecap="null" stroke="#000"/>
    <line fill="none" stroke-width="0.5" stroke-opacity="null" fill-opacity="null" x1="7.199972" y1="28.824973" x2="0.699972" y2="28.824973" id="svg_40" stroke-linejoin="null" stroke-linecap="null" stroke="#000"/>
    <line fill="none" stroke-width="0.5" stroke-opacity="null" fill-opacity="null" x1="9.074972" y1="31.199973" x2="0.574972" y2="31.324973" id="svg_41" stroke-linejoin="null" stroke-linecap="null" stroke="#000"/>
    <line fill="none" stroke-width="0.5" stroke-opacity="null" fill-opacity="null" x1="0.699973" y1="28.699974" x2="0.699973" y2="31.574973" id="svg_42" stroke-linejoin="null" stroke-linecap="null" stroke="#000"/>
    <rect fill="#999999" stroke-width="0" stroke-opacity="null" x="7.199976" y="23.199972" width="4.5" height="2.75" id="svg_59" stroke="#000"/>
    <rect fill="#999999" stroke-width="0" stroke-opacity="null" fill-opacity="null" x="7.199973" y="25.824974" width="2" height="5.124999" id="svg_60" stroke="#000"/>
    <rect fill="#999999" stroke-width="0" stroke-opacity="null" fill-opacity="null" x="0.824973" y="29.074973" width="7.499999" height="2" id="svg_61" stroke="#000"/>
   </g>
   <path fill="none" stroke="#ff0000" stroke-width="1.5" opacity="0.5" d="m31.82497,5.32498" id="svg_63"/>
   <line stroke="#ff7f00" stroke-linecap="null" stroke-linejoin="null" id="svg_17" y2="3.56513" x2="31.378137" y1="3.56513" x1="8.762508" fill-opacity="null" stroke-width="0.5" fill="none"/>
   <g id="svg_77" transform="rotate(-35.926177978515625 18.480194091796875,11.051391601562496) ">
    <rect fill="#ffffff" x="11.09046" y="5.5668" width="14.374999" height="2.494555" id="svg_69" stroke="#7f0000" transform="rotate(-9.457136154174805 18.277984619140636,6.814086914062498) "/>
    <rect fill="#ffffff" stroke-opacity="null" x="11.512509" y="9.699977" width="14.249999" height="7.999999" id="svg_68" stroke="#7f0000"/>
    <path fill="#ff0000" stroke-width="0.5" stroke-opacity="null" d="m11.738279,12.88502c0.84666,-0.0016 1.69332,-0.0032 2.53999,-0.0048c0.00557,-0.25266 0.01114,-0.50532 0.01672,-0.75798c0.84261,0 1.68523,0 2.52785,0c0,-0.25421 0,-0.50842 0,-0.76263c0.86419,0 1.72838,0 2.59258,0c0,-0.248 0,-0.49601 0,-0.74402c0.85352,0 1.70705,0 2.56057,0c0,-0.24801 0,-0.49602 0,-0.74403c1.26962,0 2.53924,0 3.80886,0c0,0.124 0,0.24801 0,0.37201c-0.84286,0 -1.68571,0 -2.52857,0c0,0.25111 0,0.50222 0,0.75333c-0.85353,0 -1.70705,0 -2.56058,0c0,0.25111 0,0.50222 0,0.75333c-0.85352,0 -1.70704,0 -2.56057,0c0,0.25111 0,0.50222 0,0.75333c-0.86419,0 -1.72839,0 -2.59258,0c0,0.25421 0,0.50842 0,0.76263c-1.28029,0 -2.56058,0 -3.84086,0c0.05707,-0.12323 -0.0973,-0.26219 0.03659,-0.38117l0,0z" id="svg_67" transform="rotate(16.41381072998047 18.733398437499993,11.568878173828123) " stroke="#7f0000"/>
    <path fill="#ff0000" stroke-width="0.5" stroke-opacity="null" d="m11.163829,6.39221c0.84147,0.1533 1.68294,0.3066 2.52442,0.4599c0.04891,-0.16243 0.09783,-0.32488 0.14674,-0.48731c0.83718,0.1536 1.67436,0.3072 2.51154,0.46079c0.04364,-0.16445 0.08728,-0.32891 0.13092,-0.49337c0.85862,0.15753 1.71725,0.31507 2.57587,0.4726c0.04257,-0.16045 0.08515,-0.32089 0.12772,-0.48134c0.84802,0.15558 1.69604,0.31117 2.54406,0.46676c0.04257,-0.16045 0.08515,-0.32089 0.12773,-0.48135c1.26143,0.23144 2.52287,0.46288 3.78429,0.69431c-0.02129,0.08023 -0.04257,0.16046 -0.06386,0.24068c-0.83742,-0.15365 -1.67484,-0.30729 -2.51226,-0.46093c-0.04311,0.16245 -0.08622,0.32491 -0.12933,0.48736c-0.84801,-0.15559 -1.69604,-0.31118 -2.54406,-0.46677c-0.04311,0.16246 -0.08622,0.32491 -0.12932,0.48736c-0.84802,-0.15559 -1.69604,-0.31117 -2.54406,-0.46676c-0.04311,0.16245 -0.08622,0.32491 -0.12932,0.48736c-0.85862,-0.15753 -1.71725,-0.31507 -2.57587,-0.4726c-0.04364,0.16446 -0.08728,0.32892 -0.13092,0.49337c-1.27203,-0.23338 -2.54406,-0.46676 -3.81609,-0.70014c0.07786,-0.06932 -0.05166,-0.18735 0.1018,-0.23992l0,0z" id="svg_72" stroke="#7f0000" transform="rotate(-9.457136154174805 18.349609374999996,6.820587158203127) "/>
    <path fill="#000000" stroke-width="0" stroke-opacity="null" fill-opacity="null" d="m17.387509,12.69997l-0.20001,4.67501l4.625,-2.25444l-4.42499,-2.42057z" id="svg_75" stroke="#7f0000"/>
   </g>
   <line stroke="#ff0000" stroke-linecap="null" stroke-linejoin="null" id="svg_29" y2="14.228001" x2="11.864434" y1="19.981575" x1="16.054535" fill-opacity="null" stroke-width="0.5" fill="none"/>
   <rect fill="none" stroke="#000" stroke-width="1.5" stroke-opacity="null" fill-opacity="null" x="15.45" y="20.55" width="24.25" height="15.5" id="svg_7"/>
   <line fill="none" stroke-width="1.5" x1="14.825084" y1="37.609295" x2="149.692123" y2="38.484295" id="svg_78" stroke-linejoin="null" stroke-linecap="null" transform="rotate(-0.3742969036102295 82.2586059570328,38.046783447265945) " stroke="#7f0000"/>
   <line stroke="#ff7f00" stroke-linecap="null" stroke-linejoin="null" id="svg_14" y2="21.545046" x2="38.538833" y1="21.545046" x1="16.235899" fill-opacity="null" stroke-width="0.5" fill="none"/>
   <line stroke="#ff7f00" stroke-linecap="null" stroke-linejoin="null" id="svg_15" y2="35.304835" x2="16.454785" y1="21.294891" x1="16.454785" fill-opacity="null" stroke-opacity="null" stroke-width="0.5" fill="none"/>
   <line stroke="#ff0000" transform="rotate(34.31711959838867 32.65390014648438,10.751174926757809) " stroke-linecap="null" stroke-linejoin="null" id="svg_23" y2="16.129765" x2="33.158211" y1="5.372588" x1="32.149585" fill-opacity="null" stroke-width="0.5" fill="none"/>
   <line stroke-linecap="null" stroke-linejoin="null" id="svg_26" y2="1.219923" x2="20.1821" y1="12.132951" x1="9.331612" fill-opacity="null" stroke-width="0.5" stroke="#ff0000" fill="none"/>
   <line stroke-linecap="null" stroke-linejoin="null" id="svg_28" y2="14.290541" x2="11.926973" y1="11.788987" x1="9.331612" fill-opacity="null" stroke-width="0.5" stroke="#ff0000" fill="none"/>
   <line stroke="#ff0000" stroke-linecap="null" stroke-linejoin="null" id="svg_30" y2="8.536967" x2="43.571626" y1="6.129222" x1="35.035074" fill-opacity="null" stroke-opacity="null" stroke-width="0.5" fill="none"/>
   <line stroke="#ff0000" transform="rotate(36.08173370361328 38.99591064453126,13.619583129882814) " stroke-linecap="null" stroke-linejoin="null" id="svg_31" y2="17.73666" x2="39.500255" y1="9.502499" x1="38.491629" fill-opacity="null" stroke-width="0.5" fill="none"/>
   <line stroke="#ff0000" stroke-linecap="null" stroke-linejoin="null" id="svg_32" y2="15.228621" x2="29.281497" y1="15.635127" x1="30.250851" fill-opacity="null" stroke-opacity="null" stroke-width="0.5" fill="none"/>
   <line transform="rotate(3.3282265663146973 28.859405517578196,15.181716918945307) " stroke="#ff0000" stroke-linecap="null" stroke-linejoin="null" id="svg_34" y2="15.197354" x2="29.375311" y1="15.166084" x1="28.343419" fill-opacity="null" stroke-opacity="null" stroke-width="0.5" fill="none"/>
   <line transform="rotate(11.212923049926758 27.936981201171903,15.212997436523443) " stroke="#ff0000" stroke-linecap="null" stroke-linejoin="null" id="svg_35" y2="15.384971" x2="27.499147" y1="15.041005" x1="28.374687" fill-opacity="null" stroke-opacity="null" stroke-width="0.5" fill="none"/>
   <line stroke="#ff0000" stroke-linecap="null" stroke-linejoin="null" id="svg_43" y2="17.136056" x2="36.160769" y1="17.542562" x1="37.130123" fill-opacity="null" stroke-opacity="null" stroke-width="0.5" fill="none"/>
   <line transform="rotate(3.3282265663146973 35.738677978515575,17.089141845703097) " stroke="#ff0000" stroke-linecap="null" stroke-linejoin="null" id="svg_44" y2="17.104788" x2="36.254583" y1="17.073519" x1="35.222691" fill-opacity="null" stroke-opacity="null" stroke-width="0.5" fill="none"/>
   <line transform="rotate(11.212923049926758 34.81625366210936,17.12042236328125) " stroke="#ff0000" stroke-linecap="null" stroke-linejoin="null" id="svg_45" y2="17.292406" x2="34.37842" y1="16.948439" x1="35.253959" fill-opacity="null" stroke-opacity="null" stroke-width="0.5" fill="none"/>
   <line stroke="#cccccc" stroke-linecap="null" stroke-linejoin="null" id="svg_49" y2="29.331004" x2="7.393349" y1="29.331004" x1="1.237113" fill-opacity="null" stroke-width="0.5" fill="none"/>
   <line stroke="#cccccc" stroke-linecap="null" stroke-linejoin="null" id="svg_50" y2="23.223803" x2="7.4544" y1="29.567646" x1="7.4544" fill-opacity="null" stroke-opacity="null" stroke-width="0.5" fill="none"/>
   <line stroke="#cccccc" stroke-linecap="null" stroke-linejoin="null" id="svg_51" y2="23.411435" x2="11.704373" y1="23.473935" x1="7.641897" fill-opacity="null" stroke-opacity="null" stroke-width="0.5" fill="none"/>
   <line stroke="#cccccc" stroke-linecap="null" stroke-linejoin="null" id="svg_52" y2="31.069975" x2="1.016944" y1="29.067646" x1="1.016944" fill-opacity="null" stroke-opacity="null" stroke-width="0.5" fill="none"/>
  </g>
 </g>
</svg>